<svg width="48.000000" height="49.000000" viewBox="0 0 48 49" fill="none" xmlns="http://www.w3.org/2000/svg" xmlns:xlink="http://www.w3.org/1999/xlink">
	<desc>
			Created with Pixso.
	</desc>
	<defs/>
	<circle id="Ellipse 1" cx="24.000000" cy="24.000000" r="24.000000" fill="#6D3B27" fill-opacity="1.000000"/>
	<path id="Ellipse 2" d="M47.73 27.58C47.09 31.84 45.33 35.74 42.75 38.96C39.23 43.38 34.46 46.22 29.33 47.39C23.82 48.65 18.31 47.9 13.58 45.61C8.49 43.16 4.65 39.14 2.38 34.4C-0.08 29.31 -0.57 23.78 0.6 18.65C1.86 13.14 4.93 8.51 9.04 5.23C12.45 2.51 16.38 0.87 20.41 0.26C22.37 -0.03 24 1.61 24 3.6C24 5.58 22.37 7.15 20.42 7.58C17.86 8.13 15.51 9.28 13.52 10.86C10.43 13.33 8.43 16.67 7.62 20.26C6.74 24.12 7.26 27.97 8.86 31.28C10.58 34.85 13.39 37.54 16.71 39.13C20.27 40.85 24.15 41.19 27.73 40.37C31.59 39.49 34.84 37.34 37.13 34.47C38.79 32.38 39.88 30.02 40.41 27.57C40.83 25.62 42.41 24 44.39 24C46.38 24 48.02 25.62 47.73 27.58Z" fill="#EE8313" fill-opacity="1.000000" fill-rule="evenodd"/>
	<path id="HK" d="M14.25 30L12.14 30L12.14 18.36L14.25 18.36L14.25 23.28L19.64 23.28L19.64 18.36L21.76 18.36L21.76 30L19.64 30L19.64 25.05L14.25 25.05L14.25 30ZM26.15 30L24.05 30L24.05 18.36L26.15 18.36L26.15 23.71L26.3 23.71L30.84 18.36L33.41 18.36L28.91 23.58L33.45 30L30.91 30L27.45 25.01L26.15 26.53L26.15 30Z" fill="#FFFFFF" fill-opacity="1.000000" fill-rule="evenodd"/>
</svg>
