<svg width="56.000000" height="57.000000" viewBox="0 0 56 57" fill="none" xmlns="http://www.w3.org/2000/svg" xmlns:xlink="http://www.w3.org/1999/xlink">
	<desc>
			Created with Pixso.
	</desc>
	<defs>
		<filter id="filter_0_7_dd" x="-0.001221" y="0.000000" width="56.001221" height="56.002441" filterUnits="userSpaceOnUse" color-interpolation-filters="sRGB">
			<feFlood flood-opacity="0" result="BackgroundImageFix"/>
			<feColorMatrix in="SourceAlpha" type="matrix" values="0 0 0 0 0 0 0 0 0 0 0 0 0 0 0 0 0 0 127 0" result="hardAlpha"/>
			<feOffset dx="0" dy="4"/>
			<feGaussianBlur stdDeviation="1.33333"/>
			<feComposite in2="hardAlpha" operator="out" k2="-1" k3="1"/>
			<feColorMatrix type="matrix" values="0 0 0 0 0 0 0 0 0 0 0 0 0 0 0 0 0 0 0.25 0"/>
			<feBlend mode="normal" in2="BackgroundImageFix" result="effect_dropShadow_1"/>
			<feBlend mode="normal" in="SourceGraphic" in2="effect_dropShadow_1" result="shape"/>
		</filter>
	</defs>
	<g filter="url(#filter_0_7_dd)">
		<circle id="Ellipse 1" cx="28.000000" cy="24.000000" r="24.000000" fill="#6D3B27" fill-opacity="1.000000"/>
		<path id="Ellipse 2" d="M51.73 27.58C51.09 31.84 49.33 35.74 46.75 38.96C43.23 43.38 38.46 46.22 33.33 47.39C27.82 48.65 22.31 47.9 17.58 45.61C12.49 43.16 8.65 39.14 6.38 34.4C3.92 29.31 3.43 23.78 4.6 18.65C5.86 13.14 8.93 8.51 13.04 5.23C16.45 2.51 20.38 0.87 24.41 0.26C26.37 -0.03 28 1.61 28 3.6C28 5.58 26.37 7.15 24.42 7.58C21.86 8.13 19.51 9.28 17.52 10.86C14.43 13.33 12.43 16.67 11.62 20.26C10.74 24.12 11.26 27.97 12.86 31.28C14.58 34.85 17.39 37.54 20.71 39.13C24.27 40.85 28.15 41.19 31.73 40.37C35.59 39.49 38.84 37.34 41.13 34.47C42.79 32.38 43.88 30.02 44.41 27.57C44.83 25.62 46.41 24 48.39 24C50.38 24 52.02 25.62 51.73 27.58Z" fill="#EE8313" fill-opacity="1.000000" fill-rule="evenodd"/>
		<path id="HK" d="M18.25 30L16.14 30L16.14 18.36L18.25 18.36L18.25 23.28L23.64 23.28L23.64 18.36L25.76 18.36L25.76 30L23.64 30L23.64 25.05L18.25 25.05L18.25 30ZM30.15 30L28.05 30L28.05 18.36L30.15 18.36L30.15 23.71L30.3 23.71L34.84 18.36L37.41 18.36L32.91 23.58L37.45 30L34.91 30L31.45 25.01L30.15 26.53L30.15 30Z" fill="#FFFFFF" fill-opacity="1.000000" fill-rule="evenodd"/>
	</g>
</svg>
